<svg xmlns="http://www.w3.org/2000/svg" viewBox="0 0 1000 1000"><g id="LOGO"><path d="M612.61,435.83c-.24-2.74-.41-5.27-.69-7.78s-.63-5.19-1.08-7.76-1-5-1.59-7.46-1.31-4.91-2.09-7.33-1.7-4.94-2.67-7.37-2-4.68-3.09-7-2.28-4.54-3.54-6.75-2.59-4.38-4-6.49-3-4.31-4.55-6.39-3.17-4-4.85-5.89-3.43-3.76-5.24-5.54-3.77-3.63-5.75-5.34-3.9-3.26-5.93-4.79-4.12-3-6.25-4.38-4.43-2.77-6.71-4-4.49-2.4-6.79-3.49-4.63-2.09-7-3-4.77-1.78-7.19-2.54-5-1.47-7.55-2.08-5-1.08-7.48-1.5-5-.77-7.56-1-5.21-.45-7.82-.54-5.09-.08-7.63,0A112.9,112.9,0,0,0,387,435.47a31,31,0,0,1-8.77.12c-.26-1.77-.5-3.58-.8-5.38a57.66,57.66,0,0,0-11.55-26.08c-1.67-2.15-1.67-1.38-.79-4.35A140.64,140.64,0,0,1,474.54,301.9,138.68,138.68,0,0,1,506,299.78,140.67,140.67,0,0,1,634.63,400.62c.16.54.29,1.09.47,1.78-.33.44-.68,1-1.06,1.44A57.67,57.67,0,0,0,622.69,428c-.53,2.48-.84,5-1.27,7.62-1.36.48-2.85.16-4.3.22S614.3,435.83,612.61,435.83Z"/><path d="M288,440.31c6.2.48,12.4,1,18.6,1.43,4.79.35,9.59.66,14.38,1l16.07,1.15c4.66.32,9.31.63,14,1l16.5,1.17c4.58.33,9.16.64,13.75,1l16.07,1.15,14,1,16.28,1.16,14,1c5,.36,10,.74,15,1.09l14.81,1c.84.06,1.67.19,2.59.29a6.58,6.58,0,0,1-1.49,2.42c-.57.8-1.19,1.58-1.78,2.37l-1.67,2.2-1.66,2.2-1.79,2.36c-.55.74-1.11,1.47-1.66,2.2s-1.11,1.47-1.66,2.2l-1.79,2.37-1.67,2.19c-.55.74-1.11,1.47-1.66,2.2l-1.79,2.37c-.55.74-1.1,1.47-1.66,2.2L452,483.07l-1.78,2.37-1.66,2.2-1.67,2.2-1.79,2.37c-.55.73-1.1,1.47-1.66,2.2l-1.66,2.19c-.6.79-1.22,1.57-1.79,2.38a9.67,9.67,0,0,0-1.64,2.57c.84-.57,1.36-.89,1.84-1.26l22.67-17.13,21.32-16.1a4.93,4.93,0,0,1,2-1.2,4.9,4.9,0,0,1,.19.68q.42,5.59.81,11.2c.34,4.8.66,9.59,1,14.38.36,5.15.75,10.29,1.11,15.44.34,4.86.66,9.72,1,14.59.38,5.49.78,11,1.17,16.49.32,4.58.63,9.16,1,13.74.38,5.36.77,10.71,1.14,16.07.33,4.65.64,9.3,1,14,.38,5.42.78,10.85,1.16,16.27.33,4.66.64,9.31,1,14,.5,7.05,1,14.09,1.52,21.14.35,4.93.66,9.87,1,14.8.11,1.62.28,3.23.42,4.85a2.77,2.77,0,0,0,.33-1.19c.18-2.4.37-4.79.54-7.19.38-5.35.77-10.71,1.14-16.07q.5-7,1-14,.58-8.14,1.16-16.28l1-13.74c.38-5.5.78-11,1.17-16.5.32-4.58.63-9.16,1-13.74.37-5.14.75-10.29,1.11-15.43.34-4.87.66-9.73,1-14.59l1.17-16.49q.48-6.88,1-13.75.54-7.61,1.1-15.22.45-6.45.91-12.9a2.69,2.69,0,0,1,.31-.63c.65.45,1.22.83,1.77,1.25l24.53,18.53q10.15,7.66,20.32,15.32c.26.19.48.72,1.09.35l-4-5.28-4-5.24-4-5.24-4-5.24c-1.36-1.81-2.73-3.61-4.09-5.41l-4-5.25q-2-2.61-4-5.24c-1.32-1.74-2.67-3.47-4-5.24a51.34,51.34,0,0,1-3.92-5.46c1-.11,1.84-.23,2.67-.29,4.73-.34,9.45-.65,14.18-1l14.38-1,16.49-1.17,13.75-1,16.07-1.15,14-1L633.11,446l14-1c5-.35,10-.73,15-1.09l14.8-1q11.54-.81,23.05-1.63c3.84-.28,7.66-.61,11.49-.92v-.17H513.63a4.08,4.08,0,0,0-.55,2.1,13.47,13.47,0,0,1-17.87,10.6,13.19,13.19,0,0,1-8.94-11.12c-.08-.54.06-1.16-.56-1.58H287.84C288,440.26,288,440.31,288,440.31Z"/><path d="M512.16,448.92c.59.15.45.56.43.87-.14,2.19-.29,4.37-.45,6.56q-.75,10.45-1.51,20.93-.5,7.08-1,14.17c-.37,5.28-.76,10.57-1.13,15.85-.33,4.58-.64,9.17-1,13.75-.39,5.49-.79,11-1.17,16.49-.34,4.79-.66,9.59-1,14.38-.37,5.14-.75,10.29-1.11,15.43-.34,4.72-.66,9.45-1,14.17-.38,5.36-.77,10.71-1.14,16.07-.35,4.86-.67,9.73-1,14.59-.32,4.65-.66,9.29-1.17,14a10.35,10.35,0,0,1-.17-1.21c0-1.34-.05-2.69-.05-4V458.07c0-.84,0-1.67.06-2.69A15.71,15.71,0,0,0,512.16,448.92Z"/><path d="M486.15,463.12l-.17.38a.52.52,0,0,1-.12.17c-.27.23-.53.46-.82.68l-36.37,27.44a2,2,0,0,1-.34.14c0-.13,0-.31,0-.38Q466.66,473.27,485,455c.08-.08.26-.05.47-.08C486,457.68,485.8,460.51,486.15,463.12Z"/><path d="M513.43,463.62a82.33,82.33,0,0,1,.48-8.88,10,10,0,0,1,1,.59,10.46,10.46,0,0,1,.75.74l34.14,34.13c.49.49,1,1,1.46,1.49l-.29.29Z"/><path d="M488.13,552.42c.66,9.34,1.31,18.48,2,27.77a10.32,10.32,0,0,1-1.34.1A140.54,140.54,0,0,1,375,505a136.38,136.38,0,0,1-10.05-24.91q-.12-.4-.27-.81a2.16,2.16,0,0,1,.5-2.32A55.83,55.83,0,0,0,373,464.41,58.18,58.18,0,0,0,376.85,453c.14-.61.31-1.21.45-1.77a62.57,62.57,0,0,1,10.14.71c3.08,26.32,13.73,49.15,32.56,68S461.53,549.31,488.13,552.42Z"/><path d="M612.06,451.93a2.9,2.9,0,0,1,.81-.28c3.1-.23,6.19-.43,9.33-.64a5.65,5.65,0,0,1,.61,1.88,58.17,58.17,0,0,0,11.33,23.69c.31.39.59.79.87,1.16-14.2,54.87-65.38,99-125.45,102.51a5.94,5.94,0,0,1-.14-1.18q.76-11.31,1.57-22.62c.09-1.27.23-2.53.35-3.86a6.82,6.82,0,0,1,2.27-.5,112.91,112.91,0,0,0,95.58-84.31A110.77,110.77,0,0,0,611.87,453C611.91,452.64,612,452.3,612.06,451.93Z"/><path d="M565.17,435.76a48.88,48.88,0,0,1-5.93,0c-.11-.67-.25-1.28-.31-1.9a59.27,59.27,0,0,0-116.8-6.53c-.59,2.68-1,5.41-1.45,8.28-.84.49-1.92.21-2.94.22a7.26,7.26,0,0,1-2.9-.18c.22-11.53,5.52-27.71,17.23-40,12.68-13.36,28.23-20.48,46.68-20.86C536.08,374,563.68,404,565.17,435.76Z"/><path d="M551,480.78l-3.71-4.92a60.39,60.39,0,0,0,9.85-19.95,14.37,14.37,0,0,1,6.29-.46C562.44,463,555.91,475.78,551,480.78Z"/><path d="M535.36,487.71a61,61,0,0,1,4.89,3.66c-3.73,4.4-19,11.81-25.2,12.27-.35-1.39-.3-2.52.27-6.16a76.53,76.53,0,0,0,10.35-3.93A66.31,66.31,0,0,0,535.36,487.71Z"/><path d="M484.65,503.76a65.3,65.3,0,0,1-25.26-12.3,6,6,0,0,1,.72-.83c1.33-1,2.69-2,4.13-3.13,1.26.85,2.45,1.69,3.69,2.47s2.53,1.55,3.82,2.26,2.63,1.37,4,2,2.72,1.16,4.11,1.67,2.8.95,4.24,1.43A35.75,35.75,0,0,1,484.65,503.76Z"/><path d="M452.28,475.55c-.17.27-.35.58-.55.86l-3,4a4.6,4.6,0,0,1-.82-.66,64.27,64.27,0,0,1-11.29-23.22c-.08-.33-.13-.68-.2-1a15.36,15.36,0,0,1,6.27.37C446.35,465.78,445.34,464.36,452.28,475.55Z"/><path d="M504.6,440.13a4.74,4.74,0,1,1-9.47,0,4.74,4.74,0,1,1,9.47,0Z"/></g><g id="Cover"><path d="M364.48,401.88c-6.52,1-9.63,40.26.09,76.14a157.91,157.91,0,0,0,5.33,16.12c3.84-17.77,6.06-32.38,7.4-42.92.92-7.21,1.22-10.92.9-15.63C377.1,419,369,401.2,364.48,401.88Z"/><path d="M633.58,401.88c6.52,1,9.63,40.26-.09,76.14a153.09,153.09,0,0,1-5.33,16.12c-3.84-17.77-6.06-32.38-7.4-42.92-.91-7.21-1.21-10.92-.9-15.63C621,419,629,401.2,633.58,401.88Z"/></g></svg>