<svg xmlns="http://www.w3.org/2000/svg" viewBox="0 0 1000 1000"><defs><style>.cls-1{font-size:46.84px;font-family:MontserratAlternates-SemiBold, Montserrat Alternates;font-weight:600;letter-spacing:0.02em;}.cls-1,.cls-4{fill:#fff;}.cls-2{letter-spacing:0.02em;}.cls-3{letter-spacing:0.02em;}</style></defs><g id="LOGO"><text class="cls-1" transform="translate(820.3 640.08)">2<tspan class="cls-2" x="28.05" y="0">0</tspan><tspan class="cls-3" x="60.28" y="0">25</tspan></text><path id="FROSH" class="cls-4" d="M870.59,589.44a18.67,18.67,0,0,1-4.72.06c-.37-2-.54-33.45-.25-42.3a10.47,10.47,0,0,1,.18-1.27,22,22,0,0,1,4.8,0,9,9,0,0,1,.25,1.19,14.62,14.62,0,0,1,0,1.48q0,19.19,0,38.35A4.85,4.85,0,0,1,870.59,589.44Zm-25-2.34q0-17.67,0-35.34c0-1.55,0-3.1,0-4.65a7.8,7.8,0,0,0-.21-1.22,27.37,27.37,0,0,0-4.79,0c0,.68-.12,1.23-.12,1.77,0,2.05,0,4.09,0,6.14q0,16.71,0,33.43a3.38,3.38,0,0,0,.37,2.35,29,29,0,0,0,4.55-.09A5.79,5.79,0,0,0,845.56,587.1Zm12.65,1.64q0-21.06,0-42.13a3,3,0,0,0-.21-.71,17.57,17.57,0,0,0-4.8.06,10.59,10.59,0,0,0-.13,1.11q0,20.64,0,41.28a6,6,0,0,0,.27,1.22c1.44,0,2.77,0,4.11,0a1.91,1.91,0,0,0,.59-.21A2.55,2.55,0,0,0,858.21,588.74ZM784.44,410.32q0,89.25,0,178.49a3,3,0,0,0,.19.65,6.12,6.12,0,0,0,2.29.18H818.3a3.49,3.49,0,0,0,2.17-.34c0-.79.06-1.62.06-2.46q0-32.85,0-65.71c0-.64,0-1.28,0-1.91,0-.41.09-.81.15-1.34.87,0,1.63-.07,2.39-.07h47.71c.55,0,1.09-.1,1.73-.15,0-.82.09-1.52.09-2.21,0-4.66,0-9.33,0-14,0-.61-.18-1.28.47-1.87a15.25,15.25,0,0,1,3.52.17,33.53,33.53,0,0,1,.16,4.89,30,30,0,0,0,.2,5c.75,0,1.44.09,2.13.09h10.17a17.07,17.07,0,0,1,1.73.17c0,1,0,1.94,0,2.85v73.56c0,.71,0,1.42,0,2.12a7.73,7.73,0,0,0,.19,1,6.87,6.87,0,0,0,3.43-.06c0-.87.06-1.64.06-2.41,0-5.79,0-11.59,0-17.38,0-.68-.22-1.42.39-2a10.75,10.75,0,0,1,3.3.07,5.85,5.85,0,0,1,.21,2.39c0,5.79,0,11.59,0,17.38,0,.69-.2,1.42.29,2,1.85.26,27.54.4,34.56.17a12.59,12.59,0,0,0,1.27-.16,4.73,4.73,0,0,0,.17-.87q0-89.14,0-178.28a2.45,2.45,0,0,0-.24-.66,13.57,13.57,0,0,0-1.43-.14H900.39a9.12,9.12,0,0,0-1.39.19,7.9,7.9,0,0,0-.21,2.83q0,32.87,0,65.72c0,.7,0,1.41,0,2.12a9,9,0,0,1-.25,1.26c-1,0-1.79.06-2.63.06H823.36c-.5,0-1,0-1.48,0s-.8-.14-1.31-.23c0-.92,0-1.76,0-2.6V412.68c0-.64,0-1.28,0-1.91a8.3,8.3,0,0,0-.26-1.28H785.41a3.82,3.82,0,0,0-.79.16A2.76,2.76,0,0,0,784.44,410.32ZM894.92,533a6.61,6.61,0,0,1-.17-1.06q0-10.58,0-21.13c0-.27.07-.54.11-.93a10.38,10.38,0,0,1,3.61-.1,6.61,6.61,0,0,1,.17,1.06q0,10.56,0,21.12a8.67,8.67,0,0,1-.14,1Zm-.17,27.35q0-10.14,0-20.29a2.69,2.69,0,0,1,.21-.65,9.11,9.11,0,0,1,3.42-.06,5.2,5.2,0,0,1,.24,1.16q0,9.74,0,19.45a11.29,11.29,0,0,1-.14,1.31,12.72,12.72,0,0,1-3.6,0A6.75,6.75,0,0,1,894.75,560.35Zm-522.12,29a2.7,2.7,0,0,1-.67.27c-.56,0-1.13,0-1.7,0H332.1c-2.73,0-2.12.18-3.69-1.79q-27.14-34.08-54.24-68.19l-1.42-1.75a104.9,104.9,0,0,0-13.88.12,8,8,0,0,0-.17,2.68q0,24.59,0,49.18,0,8.6,0,17.17c0,.77,0,1.53-.07,2.42-.68.06-1.22.15-1.77.16-14.08.24-32.43.1-34.16-.27a5.8,5.8,0,0,1-.17-.77c-.19-3.45,0-105.07.18-106.75a9.39,9.39,0,0,1,1.14-.18c.7,0,1.41,0,2.12,0h91.82a22.27,22.27,0,0,0,5.46-.57,17.88,17.88,0,0,0,10.68-7.5c.36-.52.69-1.06,1.11-1.71,4.06.07,8.13.5,12.21.78s8.18.59,12.26.87,8.14.52,12.35.87c-.1.79-.13,1.34-.25,1.87a54.29,54.29,0,0,1-41.3,40.27,55.5,55.5,0,0,1-11.78,1.22c-.63,0-1.27.05-1.9.08-.05,0-.09.09-.14.13a.52.52,0,0,0-.08.19.42.42,0,0,0,.08.2,2.67,2.67,0,0,0,.22.36l.78,1q27.38,34.42,54.76,68.86a2.64,2.64,0,0,1,.23.35C372.5,589,372.52,589.07,372.63,589.33Zm252.37.2c-.06-.45-.13-.79-.14-1.12-.2-4.94-.06-32.85.17-34.65a10,10,0,0,1,1.14-.22c.57,0,1.13,0,1.7,0h89.7c1.9,0,3.82.11,5.71-.06A17.94,17.94,0,0,0,724.75,518a19.22,19.22,0,0,0-3.79-.33c-5.09,0-10.17,0-15.26,0q-13.37,0-26.72,0a54.15,54.15,0,0,1-52.08-39.18c-.39-1.35-.69-2.73-1-4a2.83,2.83,0,0,1,.22-.3.44.44,0,0,1,.18-.11l35.31-2.57c.34,0,.69,0,1.07,0,.33.53.64,1,.94,1.46a17.77,17.77,0,0,0,15.44,8.56c8.55.09,17.1,0,25.66,0,5.65,0,11.31-.05,17,0a52.87,52.87,0,0,1,36.52,14.57,52,52,0,0,1,16.38,30.41,54,54,0,0,1-42.11,61.86,52.32,52.32,0,0,1-11,1.13H627.16C626.47,589.64,625.78,589.57,625,589.53ZM611.71,459.3c-.23-2.74-.4-5.27-.69-7.78s-.63-5.19-1.07-7.76-1-5-1.59-7.46-1.31-4.91-2.1-7.33-1.69-4.94-2.66-7.36-2-4.69-3.09-7-2.29-4.55-3.54-6.76-2.59-4.38-4-6.49-3-4.31-4.56-6.38-3.16-4-4.85-5.89-3.43-3.76-5.23-5.55-3.78-3.62-5.75-5.34-3.91-3.26-5.94-4.79-4.11-3-6.24-4.38-4.44-2.77-6.72-4-4.48-2.41-6.78-3.49-4.64-2.1-7-3-4.77-1.78-7.19-2.54-5-1.47-7.56-2.08-5-1.08-7.47-1.5-5-.77-7.56-1-5.21-.45-7.82-.54-5.09-.08-7.63,0A112.93,112.93,0,0,0,386.07,459a31.35,31.35,0,0,1-8.76.11c-.26-1.77-.5-3.58-.81-5.38A57.54,57.54,0,0,0,365,427.6c-1.68-2.15-1.68-1.38-.79-4.35a140.61,140.61,0,0,1,109.47-97.88,140.69,140.69,0,0,1,160.1,98.72c.15.54.28,1.09.46,1.78-.32.44-.67,1-1.06,1.45a57.57,57.57,0,0,0-11.35,24.13c-.52,2.48-.83,5-1.26,7.62-1.36.48-2.85.16-4.3.22S613.41,459.3,611.71,459.3ZM160,517.8H99.26c-.08.6-.16,1-.18,1.41,0,.63,0,1.27,0,1.9v65.73c0,.83,0,1.67-.06,2.49a3.84,3.84,0,0,1-2.17.31H65.46a6.15,6.15,0,0,1-2.35-.21,5.37,5.37,0,0,1-.16-.82V481.89c.51-.09.91-.19,1.31-.22.56,0,1.13,0,1.69,0H193l2.42,0c.28.59-.09.79-.3,1s-.69.7-1,1.05l-32.39,32.38C161.12,516.69,160.56,517.22,160,517.8Zm127.19-54c6.2.48,12.39,1,18.6,1.43,4.79.35,9.58.66,14.38,1l16.07,1.15c4.65.33,9.31.64,14,1l16.49,1.18c4.59.32,9.17.63,13.75,1,5.36.37,10.72.76,16.07,1.14l14,1,16.29,1.16,13.95,1c5,.36,10,.74,15,1.09s9.87.66,14.81,1c.83.06,1.66.19,2.59.29a6.71,6.71,0,0,1-1.49,2.42c-.57.81-1.19,1.58-1.79,2.37l-1.66,2.2c-.55.73-1.11,1.46-1.66,2.2l-1.79,2.37L463,490.82l-1.67,2.2-1.79,2.37-1.66,2.2-1.66,2.19-1.79,2.37c-.55.74-1.11,1.47-1.66,2.2l-1.67,2.2-1.79,2.37-1.66,2.19c-.55.74-1.11,1.47-1.66,2.2l-1.79,2.37c-.56.73-1.11,1.47-1.66,2.2l-1.67,2.2c-.59.78-1.21,1.56-1.78,2.37a9.58,9.58,0,0,0-1.65,2.58c.85-.58,1.36-.9,1.85-1.27q11.34-8.55,22.66-17.13l21.32-16.1a5,5,0,0,1,2-1.2,4.9,4.9,0,0,1,.19.68c.27,3.73.55,7.47.81,11.2.34,4.8.65,9.59,1,14.38.37,5.15.75,10.29,1.11,15.44.35,4.86.66,9.72,1,14.59l1.17,16.49c.33,4.58.64,9.16,1,13.74q.57,8,1.15,16.07c.33,4.65.64,9.31,1,14q.57,8.13,1.15,16.28.5,7,1,14c.5,7,1,14.1,1.52,21.14.34,4.94.66,9.87,1,14.81.12,1.61.28,3.22.42,4.84a2.64,2.64,0,0,0,.33-1.19c.19-2.4.37-4.79.54-7.19q.58-8,1.15-16.06c.33-4.66.64-9.31,1-14q.57-8.14,1.16-16.28.48-6.87,1-13.74c.39-5.5.79-11,1.17-16.49.33-4.59.64-9.17,1-13.75.36-5.14.74-10.29,1.11-15.43.34-4.86.66-9.73,1-14.59.38-5.5.78-11,1.17-16.49.32-4.58.63-9.17,1-13.75.36-5.07.74-10.14,1.1-15.22q.47-6.45.92-12.89c0-.18.16-.34.31-.64.64.45,1.22.83,1.77,1.25L538.8,509q10.16,7.66,20.31,15.32c.26.19.49.72,1.09.35l-4-5.28-4-5.24q-2-2.61-4-5.24l-4-5.24q-2-2.71-4.1-5.41l-4-5.25-4-5.24c-1.33-1.74-2.67-3.47-4-5.24a50.79,50.79,0,0,1-3.92-5.45c1-.12,1.84-.24,2.67-.3l14.17-1,14.38-1,16.5-1.17,13.75-1L602,471.55l14-1,16.28-1.16c4.65-.33,9.31-.64,14-1l15-1.08c4.94-.35,9.87-.67,14.81-1q11.52-.8,23-1.63c3.83-.28,7.66-.61,11.49-.91v-.18H512.73a4,4,0,0,0-.54,2.1,13.48,13.48,0,0,1-17.87,10.61,13.18,13.18,0,0,1-8.94-11.13c-.08-.54.06-1.16-.56-1.58H287C287.07,463.73,287.11,463.78,287.15,463.78Zm224.12,8.61c.59.15.44.56.42.87-.13,2.19-.28,4.37-.44,6.56q-.75,10.47-1.51,20.93c-.34,4.72-.65,9.44-1,14.17-.37,5.28-.76,10.57-1.14,15.85-.32,4.58-.63,9.17-1,13.75-.38,5.5-.78,11-1.17,16.49-.33,4.79-.65,9.59-1,14.38-.36,5.14-.74,10.29-1.11,15.43-.33,4.73-.65,9.45-1,14.17-.37,5.36-.76,10.71-1.14,16.07-.34,4.86-.66,9.73-1,14.59-.33,4.65-.66,9.29-1.17,14a10.35,10.35,0,0,1-.17-1.21c0-1.34-.05-2.69-.05-4q0-81.42,0-162.83c0-.84,0-1.67.06-2.69A15.7,15.7,0,0,0,511.27,472.39Zm-26,14.2c-.11.25-.13.32-.16.38a.55.55,0,0,1-.13.17c-.26.23-.53.46-.81.68l-36.38,27.44a1.51,1.51,0,0,1-.34.14c0-.13,0-.31,0-.38l36.59-36.56c.07-.07.26,0,.47-.08C485.09,481.15,484.91,484,485.25,486.59Zm27.29.5a85.05,85.05,0,0,1,.47-8.88,9.56,9.56,0,0,1,1,.59,8.85,8.85,0,0,1,.76.74l34.13,34.13c.49.49,1,1,1.46,1.49l-.28.29ZM63.1,445.46c-.24-2.6-.19-34.23,0-35.82a1.66,1.66,0,0,1,.56-.21h149a1.77,1.77,0,0,1,.56.22c.22,1.6.27,33.32,0,35.71a7.64,7.64,0,0,1-1.14.24c-.56,0-1.13,0-1.69,0H65.92A10.92,10.92,0,0,1,63.1,445.46Zm712-35.75a2,2,0,0,1,.2.56q0,17.18,0,34.33a4.17,4.17,0,0,1-.18.82,5.88,5.88,0,0,1-2.34.19H679.74a19.46,19.46,0,0,0-6.07.76,18,18,0,0,0-11.53,10.75c-.26.65-.49,1.32-.72,1.91-.13.08-.18.13-.24.16a.47.47,0,0,1-.2.06l-33.49.05-1.7,0a2,2,0,0,1-.41-.09,2.49,2.49,0,0,1-.31-.22,10.46,10.46,0,0,1,0-1.11,54.21,54.21,0,0,1,41.4-47,55.15,55.15,0,0,1,12.6-1.43H773A4.14,4.14,0,0,1,775.1,409.71ZM372.82,459.07a5.05,5.05,0,0,1-.83.21c-2.46.16-34,0-35.49-.16-.17-.47-.36-1-.57-1.5a17.91,17.91,0,0,0-13.47-11.68,13.28,13.28,0,0,0-2.09-.27c-1-.05-2-.05-3-.05h-92c-.84,0-1.68,0-2.38,0a1.9,1.9,0,0,1-.48-1.72q0-4.77,0-9.53,0-11.13,0-22.26a6,6,0,0,1,.2-2.39c.4-.06.79-.17,1.2-.2s1,0,1.48,0q46.43,0,92.85,0a52.79,52.79,0,0,1,23,4.85c16.53,7.84,26.76,20.78,30.74,38.63A31,31,0,0,1,372.82,459.07ZM487.24,575.89c.66,9.34,1.3,18.48,2,27.77a10.46,10.46,0,0,1-1.35.1,140.57,140.57,0,0,1-113.77-75.29A137.09,137.09,0,0,1,364,503.56c-.08-.27-.16-.54-.26-.8a2.17,2.17,0,0,1,.5-2.33,55.83,55.83,0,0,0,7.83-12.55A58.81,58.81,0,0,0,376,476.46c.14-.61.31-1.21.46-1.77a63.72,63.72,0,0,1,10.14.71c3.07,26.32,13.73,49.15,32.56,68S460.64,572.78,487.24,575.89ZM611.17,475.4a3.72,3.72,0,0,1,.81-.28c3.09-.22,6.19-.43,9.33-.63a5.83,5.83,0,0,1,.61,1.87,58.08,58.08,0,0,0,11.33,23.7c.3.38.59.78.87,1.15-14.2,54.87-65.38,99-125.46,102.51a5.92,5.92,0,0,1-.13-1.18q.77-11.31,1.57-22.62c.08-1.27.22-2.53.35-3.86a6.82,6.82,0,0,1,2.27-.5,112.91,112.91,0,0,0,95.57-84.31A110.51,110.51,0,0,0,611,476.46C611,476.12,611.1,475.78,611.17,475.4Zm-46.9-16.17a48.71,48.71,0,0,1-5.92,0c-.11-.67-.26-1.28-.32-1.89a59.27,59.27,0,0,0-116.8-6.54c-.59,2.68-1,5.42-1.44,8.28-.85.49-1.92.21-3,.22a7.28,7.28,0,0,1-2.9-.18c.23-11.53,5.53-27.71,17.24-40,12.67-13.36,28.23-20.48,46.68-20.86C535.18,397.44,562.79,427.48,564.27,459.23Zm-14.15,45-3.71-4.92a60.37,60.37,0,0,0,9.84-19.95,14.42,14.42,0,0,1,6.3-.45C561.55,486.45,555,499.25,550.12,504.25Zm-15.66,6.93a57.63,57.63,0,0,1,4.89,3.66c-3.72,4.41-19,11.81-25.2,12.27-.34-1.39-.3-2.52.27-6.16A78,78,0,0,0,524.78,517,67.18,67.18,0,0,0,534.46,511.18Zm-50.7,16.05a65.27,65.27,0,0,1-25.27-12.3,6,6,0,0,1,.72-.83c1.34-1,2.69-2,4.14-3.12,1.25.84,2.45,1.68,3.69,2.46s2.52,1.55,3.82,2.26,2.63,1.37,4,2,2.73,1.16,4.11,1.67,2.8.95,4.25,1.43A36.68,36.68,0,0,1,483.76,527.23ZM451.39,499c-.17.27-.35.57-.56.85l-3,4a4.29,4.29,0,0,1-.83-.66A64.25,64.25,0,0,1,435.71,480c-.09-.33-.13-.68-.2-1a15.54,15.54,0,0,1,6.27.37C445.46,489.26,444.44,487.83,451.39,499Zm52.32-35.43a4.74,4.74,0,1,1-4.85-4.75A4.66,4.66,0,0,1,503.71,463.6Z"/></g></svg>